<?xml version="1.0" standalone="no"?>
<!DOCTYPE svg PUBLIC "-//W3C//DTD SVG 1.1//EN"
  "http://www.w3.org/Graphics/SVG/1.1/DTD/svg11.dtd">
<svg xmlns="http://www.w3.org/2000/svg" version="1.1" class="railroad-diagram" width="429" height="132" viewBox="0 0 429 132">
<defs><style type="text/css"><![CDATA[ svg.railroad-diagram {
  background-color: hsl(30,20%,95%);
}
svg.railroad-diagram path {
  stroke-width: 3;
  stroke: black;
  fill: none;
}
svg.railroad-diagram text {
  font: bold 14px monospace;
  text-anchor: middle;
  cursor: pointer;
}
svg.railroad-diagram text.label {
  text-anchor: start;
}
svg.railroad-diagram text.comment {
  font: italic 12px monospace;
}
svg.railroad-diagram rect {
  stroke-width: 3;
  stroke: black;
  fill: hsl(120,100%,90%);
}
 ]]></style></defs>
<g transform="translate(.5 .5)">
<path d="M 20 31 v 20 m 10 -20 v 20 m -10 -10 h 20.5"></path>
<g>
<path d="M40 41h0"></path>
<path d="M388 41h0"></path>
<path d="M40 41h20"></path>
<g>
<path d="M60 41h0"></path>
<path d="M368 41h0"></path>
<path d="M60 41h10"></path>
<g>
<path d="M70 41h0"></path>
<path d="M98 41h0"></path>
<rect x="70" y="30" width="28" height="22" rx="10" ry="10"></rect>
<text x="84" y="45">(</text>
</g>
<path d="M98 41h10"></path>
<path d="M108 41h10"></path>
<g>
<path d="M118 41h0"></path>
<path d="M146 41h0"></path>
<rect x="118" y="30" width="28" height="22"></rect>
<text x="132" y="45">&#95;</text>
</g>
<path d="M146 41h10"></path>
<g>
<path d="M156 41h0"></path>
<path d="M272 41h0"></path>
<path d="M156 41a10 10 0 0 0 10 -10v0a10 10 0 0 1 10 -10"></path>
<g>
<path d="M176 21h76"></path>
</g>
<path d="M252 21a10 10 0 0 1 10 10v0a10 10 0 0 0 10 10"></path>
<path d="M156 41h20"></path>
<g>
<path d="M176 41h0"></path>
<path d="M252 41h0"></path>
<rect x="176" y="30" width="76" height="22"></rect>
<text x="214" y="45">explist</text>
</g>
<path d="M252 41h20"></path>
</g>
<path d="M272 41h10"></path>
<g>
<path d="M282 41h0"></path>
<path d="M310 41h0"></path>
<rect x="282" y="30" width="28" height="22"></rect>
<text x="296" y="45">&#95;</text>
</g>
<path d="M310 41h10"></path>
<path d="M320 41h10"></path>
<g>
<path d="M330 41h0"></path>
<path d="M358 41h0"></path>
<rect x="330" y="30" width="28" height="22" rx="10" ry="10"></rect>
<text x="344" y="45">)</text>
</g>
<path d="M358 41h10"></path>
</g>
<path d="M368 41h20"></path>
<path d="M40 41a10 10 0 0 1 10 10v10a10 10 0 0 0 10 10"></path>
<g>
<path d="M60 71h80"></path>
<path d="M288 71h80"></path>
<rect x="140" y="60" width="148" height="22"></rect>
<text x="214" y="75">tableconstructor</text>
</g>
<path d="M368 71a10 10 0 0 0 10 -10v-10a10 10 0 0 1 10 -10"></path>
<path d="M40 41a10 10 0 0 1 10 10v40a10 10 0 0 0 10 10"></path>
<g>
<path d="M60 101h120"></path>
<path d="M248 101h120"></path>
<rect x="180" y="90" width="68" height="22"></rect>
<text x="214" y="105">String</text>
</g>
<path d="M368 101a10 10 0 0 0 10 -10v-40a10 10 0 0 1 10 -10"></path>
</g>
<path d="M 388 41 h 20 m -10 -10 v 20 m 10 -20 v 20"></path>
</g>
</svg>
