<?xml version="1.0" standalone="no"?>
<!DOCTYPE svg PUBLIC "-//W3C//DTD SVG 1.1//EN"
  "http://www.w3.org/Graphics/SVG/1.1/DTD/svg11.dtd">
<svg xmlns="http://www.w3.org/2000/svg" version="1.1" class="railroad-diagram" width="409" height="92" viewBox="0 0 409 92">
<defs><style type="text/css"><![CDATA[ svg.railroad-diagram {
  background-color: hsl(30,20%,95%);
}
svg.railroad-diagram path {
  stroke-width: 3;
  stroke: black;
  fill: none;
}
svg.railroad-diagram text {
  font: bold 14px monospace;
  text-anchor: middle;
  cursor: pointer;
}
svg.railroad-diagram text.label {
  text-anchor: start;
}
svg.railroad-diagram text.comment {
  font: italic 12px monospace;
}
svg.railroad-diagram rect {
  stroke-width: 3;
  stroke: black;
  fill: hsl(120,100%,90%);
}
 ]]></style></defs>
<g transform="translate(.5 .5)">
<path d="M 20 21 v 20 m 10 -20 v 20 m -10 -10 h 20.5"></path>
<g>
<path d="M40 31h0"></path>
<path d="M368 31h0"></path>
<path d="M40 31h20"></path>
<g>
<path d="M60 31h118"></path>
<path d="M230 31h118"></path>
<rect x="178" y="20" width="52" height="22"></rect>
<text x="204" y="35">args</text>
</g>
<path d="M348 31h20"></path>
<path d="M40 31a10 10 0 0 1 10 10v10a10 10 0 0 0 10 10"></path>
<g>
<path d="M60 61h0"></path>
<path d="M348 61h0"></path>
<path d="M60 61h10"></path>
<g>
<path d="M70 61h0"></path>
<path d="M98 61h0"></path>
<rect x="70" y="50" width="28" height="22" rx="10" ry="10"></rect>
<text x="84" y="65">:</text>
</g>
<path d="M98 61h10"></path>
<path d="M108 61h10"></path>
<g>
<path d="M118 61h0"></path>
<path d="M146 61h0"></path>
<rect x="118" y="50" width="28" height="22"></rect>
<text x="132" y="65">&#95;</text>
</g>
<path d="M146 61h10"></path>
<path d="M156 61h10"></path>
<g>
<path d="M166 61h0"></path>
<path d="M218 61h0"></path>
<rect x="166" y="50" width="52" height="22"></rect>
<text x="192" y="65">Name</text>
</g>
<path d="M218 61h10"></path>
<path d="M228 61h10"></path>
<g>
<path d="M238 61h0"></path>
<path d="M266 61h0"></path>
<rect x="238" y="50" width="28" height="22"></rect>
<text x="252" y="65">&#95;</text>
</g>
<path d="M266 61h10"></path>
<path d="M276 61h10"></path>
<g>
<path d="M286 61h0"></path>
<path d="M338 61h0"></path>
<rect x="286" y="50" width="52" height="22"></rect>
<text x="312" y="65">args</text>
</g>
<path d="M338 61h10"></path>
</g>
<path d="M348 61a10 10 0 0 0 10 -10v-10a10 10 0 0 1 10 -10"></path>
</g>
<path d="M 368 31 h 20 m -10 -10 v 20 m 10 -20 v 20"></path>
</g>
</svg>
