<?xml version="1.0" standalone="no"?>
<!DOCTYPE svg PUBLIC "-//W3C//DTD SVG 1.1//EN"
  "http://www.w3.org/Graphics/SVG/1.1/DTD/svg11.dtd">
<svg xmlns="http://www.w3.org/2000/svg" version="1.1" class="railroad-diagram" width="525" height="81" viewBox="0 0 525 81">
<defs><style type="text/css"><![CDATA[ svg.railroad-diagram {
  background-color: hsl(30,20%,95%);
}
svg.railroad-diagram path {
  stroke-width: 3;
  stroke: black;
  fill: none;
}
svg.railroad-diagram text {
  font: bold 14px monospace;
  text-anchor: middle;
  cursor: pointer;
}
svg.railroad-diagram text.label {
  text-anchor: start;
}
svg.railroad-diagram text.comment {
  font: italic 12px monospace;
}
svg.railroad-diagram rect {
  stroke-width: 3;
  stroke: black;
  fill: hsl(120,100%,90%);
}
 ]]></style></defs>
<g transform="translate(.5 .5)">
<path d="M 20 31 v 20 m 10 -20 v 20 m -10 -10 h 20.5"></path>
<g>
<path d="M40 41h0"></path>
<path d="M484 41h0"></path>
<path d="M40 41h10"></path>
<g>
<path d="M50 41h0"></path>
<path d="M78 41h0"></path>
<rect x="50" y="30" width="28" height="22"></rect>
<text x="64" y="45">&#95;</text>
</g>
<path d="M78 41h10"></path>
<g>
<path d="M88 41h0"></path>
<path d="M280 41h0"></path>
<path d="M88 41a10 10 0 0 0 10 -10v0a10 10 0 0 1 10 -10"></path>
<g>
<path d="M108 21h152"></path>
</g>
<path d="M260 21a10 10 0 0 1 10 10v0a10 10 0 0 0 10 10"></path>
<path d="M88 41h20"></path>
<g>
<path d="M108 41h0"></path>
<path d="M260 41h0"></path>
<path d="M108 41h10"></path>
<g>
<path d="M118 41h0"></path>
<path d="M250 41h0"></path>
<rect x="118" y="30" width="132" height="22"></rect>
<text x="184" y="45">stat&#95;semicolon</text>
</g>
<path d="M250 41h10"></path>
<path d="M118 41a10 10 0 0 0 -10 10v0a10 10 0 0 0 10 10"></path>
<g>
<path d="M118 61h132"></path>
</g>
<path d="M250 61a10 10 0 0 0 10 -10v0a10 10 0 0 0 -10 -10"></path>
</g>
<path d="M260 41h20"></path>
</g>
<g>
<path d="M280 41h0"></path>
<path d="M484 41h0"></path>
<path d="M280 41a10 10 0 0 0 10 -10v0a10 10 0 0 1 10 -10"></path>
<g>
<path d="M300 21h164"></path>
</g>
<path d="M464 21a10 10 0 0 1 10 10v0a10 10 0 0 0 10 10"></path>
<path d="M280 41h20"></path>
<g>
<path d="M300 41h0"></path>
<path d="M464 41h0"></path>
<rect x="300" y="30" width="164" height="22"></rect>
<text x="382" y="45">laststat&#95;semicolon</text>
</g>
<path d="M464 41h20"></path>
</g>
</g>
<path d="M 484 41 h 20 m -10 -10 v 20 m 10 -20 v 20"></path>
</g>
</svg>
