<?xml version="1.0" standalone="no"?>
<!DOCTYPE svg PUBLIC "-//W3C//DTD SVG 1.1//EN"
  "http://www.w3.org/Graphics/SVG/1.1/DTD/svg11.dtd">
<svg xmlns="http://www.w3.org/2000/svg" version="1.1" class="railroad-diagram" width="409" height="151" viewBox="0 0 409 151">
<defs><style type="text/css"><![CDATA[ svg.railroad-diagram {
  background-color: hsl(30,20%,95%);
}
svg.railroad-diagram path {
  stroke-width: 3;
  stroke: black;
  fill: none;
}
svg.railroad-diagram text {
  font: bold 14px monospace;
  text-anchor: middle;
  cursor: pointer;
}
svg.railroad-diagram text.label {
  text-anchor: start;
}
svg.railroad-diagram text.comment {
  font: italic 12px monospace;
}
svg.railroad-diagram rect {
  stroke-width: 3;
  stroke: black;
  fill: hsl(120,100%,90%);
}
 ]]></style></defs>
<g transform="translate(.5 .5)">
<path d="M 20 21 v 20 m 10 -20 v 20 m -10 -10 h 20.5"></path>
<g>
<path d="M40 31h0"></path>
<path d="M368 31h0"></path>
<path d="M40 31h20"></path>
<g>
<path d="M60 31h0"></path>
<path d="M348 31h0"></path>
<g>
<path d="M60 31h0"></path>
<path d="M188 31h0"></path>
<path d="M60 31h20"></path>
<g>
<path d="M80 31h88"></path>
</g>
<path d="M168 31h20"></path>
<path d="M60 31a10 10 0 0 1 10 10v0a10 10 0 0 0 10 10"></path>
<g>
<path d="M80 51h0"></path>
<path d="M168 51h0"></path>
<path d="M 80 51 h 20 m -10 -10 v 20 m 10 -20 v 20"></path>
<g>
<path d="M100 51h0"></path>
<path d="M168 51h0"></path>
<path d="M100 51h20"></path>
<g>
<path d="M120 51h0"></path>
<path d="M148 51h0"></path>
<rect x="120" y="40" width="28" height="22" rx="10" ry="10"></rect>
<text x="134" y="55">"</text>
</g>
<path d="M148 51h20"></path>
<path d="M100 51a10 10 0 0 1 10 10v10a10 10 0 0 0 10 10"></path>
<g>
<path d="M120 81h0"></path>
<path d="M148 81h0"></path>
<rect x="120" y="70" width="28" height="22" rx="10" ry="10"></rect>
<text x="134" y="85">\</text>
</g>
<path d="M148 81a10 10 0 0 0 10 -10v-10a10 10 0 0 1 10 -10"></path>
</g>
</g>
<path d="M168 51a10 10 0 0 0 10 -10v0a10 10 0 0 1 10 -10"></path>
</g>
<path d="M188 31h10"></path>
<g>
<path d="M198 31h0"></path>
<path d="M338 31h0"></path>
<rect x="198" y="20" width="140" height="22" rx="10" ry="10"></rect>
<text x="268" y="35">&#91;any character&#93;</text>
</g>
<path d="M338 31h10"></path>
</g>
<path d="M348 31h20"></path>
<path d="M40 31a10 10 0 0 1 10 10v69a10 10 0 0 0 10 10"></path>
<g>
<path d="M60 120h44"></path>
<path d="M304 120h44"></path>
<path d="M104 120h10"></path>
<g>
<path d="M114 120h0"></path>
<path d="M142 120h0"></path>
<rect x="114" y="109" width="28" height="22" rx="10" ry="10"></rect>
<text x="128" y="124">\</text>
</g>
<path d="M142 120h10"></path>
<path d="M152 120h10"></path>
<g>
<path d="M162 120h0"></path>
<path d="M294 120h0"></path>
<rect x="162" y="109" width="132" height="22"></rect>
<text x="228" y="124">EscapeSequence</text>
</g>
<path d="M294 120h10"></path>
</g>
<path d="M348 120a10 10 0 0 0 10 -10v-69a10 10 0 0 1 10 -10"></path>
</g>
<path d="M 368 31 h 20 m -10 -10 v 20 m 10 -20 v 20"></path>
</g>
</svg>
