<?xml version="1.0" standalone="no"?>
<!DOCTYPE svg PUBLIC "-//W3C//DTD SVG 1.1//EN"
  "http://www.w3.org/Graphics/SVG/1.1/DTD/svg11.dtd">
<svg xmlns="http://www.w3.org/2000/svg" version="1.1" class="railroad-diagram" width="481" height="102" viewBox="0 0 481 102">
<defs><style type="text/css"><![CDATA[ svg.railroad-diagram {
  background-color: hsl(30,20%,95%);
}
svg.railroad-diagram path {
  stroke-width: 3;
  stroke: black;
  fill: none;
}
svg.railroad-diagram text {
  font: bold 14px monospace;
  text-anchor: middle;
  cursor: pointer;
}
svg.railroad-diagram text.label {
  text-anchor: start;
}
svg.railroad-diagram text.comment {
  font: italic 12px monospace;
}
svg.railroad-diagram rect {
  stroke-width: 3;
  stroke: black;
  fill: hsl(120,100%,90%);
}
 ]]></style></defs>
<g transform="translate(.5 .5)">
<path d="M 20 31 v 20 m 10 -20 v 20 m -10 -10 h 20.5"></path>
<g>
<path d="M40 41h0"></path>
<path d="M440 41h0"></path>
<path d="M40 41h20"></path>
<g>
<path d="M60 41h0"></path>
<path d="M420 41h0"></path>
<path d="M60 41h10"></path>
<g>
<path d="M70 41h0"></path>
<path d="M130 41h0"></path>
<rect x="70" y="30" width="60" height="22"></rect>
<text x="100" y="45">value</text>
</g>
<path d="M130 41h10"></path>
<path d="M140 41h10"></path>
<g>
<path d="M150 41h0"></path>
<path d="M178 41h0"></path>
<rect x="150" y="30" width="28" height="22"></rect>
<text x="164" y="45">&#95;</text>
</g>
<path d="M178 41h10"></path>
<g>
<path d="M188 41h0"></path>
<path d="M420 41h0"></path>
<path d="M188 41a10 10 0 0 0 10 -10v0a10 10 0 0 1 10 -10"></path>
<g>
<path d="M208 21h192"></path>
</g>
<path d="M400 21a10 10 0 0 1 10 10v0a10 10 0 0 0 10 10"></path>
<path d="M188 41h20"></path>
<g>
<path d="M208 41h0"></path>
<path d="M400 41h0"></path>
<path d="M208 41h10"></path>
<g>
<path d="M218 41h0"></path>
<path d="M278 41h0"></path>
<rect x="218" y="30" width="60" height="22"></rect>
<text x="248" y="45">binop</text>
</g>
<path d="M278 41h10"></path>
<path d="M288 41h10"></path>
<g>
<path d="M298 41h0"></path>
<path d="M326 41h0"></path>
<rect x="298" y="30" width="28" height="22"></rect>
<text x="312" y="45">&#95;</text>
</g>
<path d="M326 41h10"></path>
<path d="M336 41h10"></path>
<g>
<path d="M346 41h0"></path>
<path d="M390 41h0"></path>
<rect x="346" y="30" width="44" height="22"></rect>
<text x="368" y="45">exp</text>
</g>
<path d="M390 41h10"></path>
</g>
<path d="M400 41h20"></path>
</g>
</g>
<path d="M420 41h20"></path>
<path d="M40 41a10 10 0 0 1 10 10v10a10 10 0 0 0 10 10"></path>
<g>
<path d="M60 71h88"></path>
<path d="M332 71h88"></path>
<path d="M148 71h10"></path>
<g>
<path d="M158 71h0"></path>
<path d="M210 71h0"></path>
<rect x="158" y="60" width="52" height="22"></rect>
<text x="184" y="75">unop</text>
</g>
<path d="M210 71h10"></path>
<path d="M220 71h10"></path>
<g>
<path d="M230 71h0"></path>
<path d="M258 71h0"></path>
<rect x="230" y="60" width="28" height="22"></rect>
<text x="244" y="75">&#95;</text>
</g>
<path d="M258 71h10"></path>
<path d="M268 71h10"></path>
<g>
<path d="M278 71h0"></path>
<path d="M322 71h0"></path>
<rect x="278" y="60" width="44" height="22"></rect>
<text x="300" y="75">exp</text>
</g>
<path d="M322 71h10"></path>
</g>
<path d="M420 71a10 10 0 0 0 10 -10v-10a10 10 0 0 1 10 -10"></path>
</g>
<path d="M 440 41 h 20 m -10 -10 v 20 m 10 -20 v 20"></path>
</g>
</svg>
