<?xml version="1.0" standalone="no"?>
<!DOCTYPE svg PUBLIC "-//W3C//DTD SVG 1.1//EN"
  "http://www.w3.org/Graphics/SVG/1.1/DTD/svg11.dtd">
<svg xmlns="http://www.w3.org/2000/svg" version="1.1" class="railroad-diagram" width="585" height="122" viewBox="0 0 585 122">
<defs><style type="text/css"><![CDATA[ svg.railroad-diagram {
  background-color: hsl(30,20%,95%);
}
svg.railroad-diagram path {
  stroke-width: 3;
  stroke: black;
  fill: none;
}
svg.railroad-diagram text {
  font: bold 14px monospace;
  text-anchor: middle;
  cursor: pointer;
}
svg.railroad-diagram text.label {
  text-anchor: start;
}
svg.railroad-diagram text.comment {
  font: italic 12px monospace;
}
svg.railroad-diagram rect {
  stroke-width: 3;
  stroke: black;
  fill: hsl(120,100%,90%);
}
 ]]></style></defs>
<g transform="translate(.5 .5)">
<path d="M 20 21 v 20 m 10 -20 v 20 m -10 -10 h 20.5"></path>
<g>
<path d="M40 31h0"></path>
<path d="M544 31h0"></path>
<path d="M40 31h20"></path>
<g>
<path d="M60 31h0"></path>
<path d="M524 31h0"></path>
<path d="M60 31h10"></path>
<g>
<path d="M70 31h0"></path>
<path d="M98 31h0"></path>
<rect x="70" y="20" width="28" height="22" rx="10" ry="10"></rect>
<text x="84" y="35">&#91;</text>
</g>
<path d="M98 31h10"></path>
<path d="M108 31h10"></path>
<g>
<path d="M118 31h0"></path>
<path d="M146 31h0"></path>
<rect x="118" y="20" width="28" height="22"></rect>
<text x="132" y="35">&#95;</text>
</g>
<path d="M146 31h10"></path>
<path d="M156 31h10"></path>
<g>
<path d="M166 31h0"></path>
<path d="M210 31h0"></path>
<rect x="166" y="20" width="44" height="22"></rect>
<text x="188" y="35">exp</text>
</g>
<path d="M210 31h10"></path>
<path d="M220 31h10"></path>
<g>
<path d="M230 31h0"></path>
<path d="M258 31h0"></path>
<rect x="230" y="20" width="28" height="22"></rect>
<text x="244" y="35">&#95;</text>
</g>
<path d="M258 31h10"></path>
<path d="M268 31h10"></path>
<g>
<path d="M278 31h0"></path>
<path d="M306 31h0"></path>
<rect x="278" y="20" width="28" height="22" rx="10" ry="10"></rect>
<text x="292" y="35">&#93;</text>
</g>
<path d="M306 31h10"></path>
<path d="M316 31h10"></path>
<g>
<path d="M326 31h0"></path>
<path d="M354 31h0"></path>
<rect x="326" y="20" width="28" height="22"></rect>
<text x="340" y="35">&#95;</text>
</g>
<path d="M354 31h10"></path>
<path d="M364 31h10"></path>
<g>
<path d="M374 31h0"></path>
<path d="M402 31h0"></path>
<rect x="374" y="20" width="28" height="22" rx="10" ry="10"></rect>
<text x="388" y="35">=</text>
</g>
<path d="M402 31h10"></path>
<path d="M412 31h10"></path>
<g>
<path d="M422 31h0"></path>
<path d="M450 31h0"></path>
<rect x="422" y="20" width="28" height="22"></rect>
<text x="436" y="35">&#95;</text>
</g>
<path d="M450 31h10"></path>
<path d="M460 31h10"></path>
<g>
<path d="M470 31h0"></path>
<path d="M514 31h0"></path>
<rect x="470" y="20" width="44" height="22"></rect>
<text x="492" y="35">exp</text>
</g>
<path d="M514 31h10"></path>
</g>
<path d="M524 31h20"></path>
<path d="M40 31a10 10 0 0 1 10 10v10a10 10 0 0 0 10 10"></path>
<g>
<path d="M60 61h92"></path>
<path d="M432 61h92"></path>
<path d="M152 61h10"></path>
<g>
<path d="M162 61h0"></path>
<path d="M214 61h0"></path>
<rect x="162" y="50" width="52" height="22"></rect>
<text x="188" y="65">Name</text>
</g>
<path d="M214 61h10"></path>
<path d="M224 61h10"></path>
<g>
<path d="M234 61h0"></path>
<path d="M262 61h0"></path>
<rect x="234" y="50" width="28" height="22"></rect>
<text x="248" y="65">&#95;</text>
</g>
<path d="M262 61h10"></path>
<path d="M272 61h10"></path>
<g>
<path d="M282 61h0"></path>
<path d="M310 61h0"></path>
<rect x="282" y="50" width="28" height="22" rx="10" ry="10"></rect>
<text x="296" y="65">=</text>
</g>
<path d="M310 61h10"></path>
<path d="M320 61h10"></path>
<g>
<path d="M330 61h0"></path>
<path d="M358 61h0"></path>
<rect x="330" y="50" width="28" height="22"></rect>
<text x="344" y="65">&#95;</text>
</g>
<path d="M358 61h10"></path>
<path d="M368 61h10"></path>
<g>
<path d="M378 61h0"></path>
<path d="M422 61h0"></path>
<rect x="378" y="50" width="44" height="22"></rect>
<text x="400" y="65">exp</text>
</g>
<path d="M422 61h10"></path>
</g>
<path d="M524 61a10 10 0 0 0 10 -10v-10a10 10 0 0 1 10 -10"></path>
<path d="M40 31a10 10 0 0 1 10 10v40a10 10 0 0 0 10 10"></path>
<g>
<path d="M60 91h210"></path>
<path d="M314 91h210"></path>
<rect x="270" y="80" width="44" height="22"></rect>
<text x="292" y="95">exp</text>
</g>
<path d="M524 91a10 10 0 0 0 10 -10v-40a10 10 0 0 1 10 -10"></path>
</g>
<path d="M 544 31 h 20 m -10 -10 v 20 m 10 -20 v 20"></path>
</g>
</svg>
