<?xml version="1.0" standalone="no"?>
<!DOCTYPE svg PUBLIC "-//W3C//DTD SVG 1.1//EN"
  "http://www.w3.org/Graphics/SVG/1.1/DTD/svg11.dtd">
<svg xmlns="http://www.w3.org/2000/svg" version="1.1" class="railroad-diagram" width="685" height="81" viewBox="0 0 685 81">
<defs><style type="text/css"><![CDATA[ svg.railroad-diagram {
  background-color: hsl(30,20%,95%);
}
svg.railroad-diagram path {
  stroke-width: 3;
  stroke: black;
  fill: none;
}
svg.railroad-diagram text {
  font: bold 14px monospace;
  text-anchor: middle;
  cursor: pointer;
}
svg.railroad-diagram text.label {
  text-anchor: start;
}
svg.railroad-diagram text.comment {
  font: italic 12px monospace;
}
svg.railroad-diagram rect {
  stroke-width: 3;
  stroke: black;
  fill: hsl(120,100%,90%);
}
 ]]></style></defs>
<g transform="translate(.5 .5)">
<path d="M 20 31 v 20 m 10 -20 v 20 m -10 -10 h 20.5"></path>
<g>
<path d="M40 41h0"></path>
<path d="M644 41h0"></path>
<path d="M40 41h10"></path>
<g>
<path d="M50 41h0"></path>
<path d="M102 41h0"></path>
<rect x="50" y="30" width="52" height="22"></rect>
<text x="76" y="45">Name</text>
</g>
<path d="M102 41h10"></path>
<path d="M112 41h10"></path>
<g>
<path d="M122 41h0"></path>
<path d="M150 41h0"></path>
<rect x="122" y="30" width="28" height="22"></rect>
<text x="136" y="45">&#95;</text>
</g>
<path d="M150 41h10"></path>
<g>
<path d="M160 41h0"></path>
<path d="M388 41h0"></path>
<path d="M160 41a10 10 0 0 0 10 -10v0a10 10 0 0 1 10 -10"></path>
<g>
<path d="M180 21h188"></path>
</g>
<path d="M368 21a10 10 0 0 1 10 10v0a10 10 0 0 0 10 10"></path>
<path d="M160 41h20"></path>
<g>
<path d="M180 41h0"></path>
<path d="M368 41h0"></path>
<path d="M180 41h10"></path>
<g>
<path d="M190 41h0"></path>
<path d="M358 41h0"></path>
<path d="M190 41h10"></path>
<g>
<path d="M200 41h0"></path>
<path d="M228 41h0"></path>
<rect x="200" y="30" width="28" height="22" rx="10" ry="10"></rect>
<text x="214" y="45">.</text>
</g>
<path d="M228 41h10"></path>
<path d="M238 41h10"></path>
<g>
<path d="M248 41h0"></path>
<path d="M276 41h0"></path>
<rect x="248" y="30" width="28" height="22"></rect>
<text x="262" y="45">&#95;</text>
</g>
<path d="M276 41h10"></path>
<path d="M286 41h10"></path>
<g>
<path d="M296 41h0"></path>
<path d="M348 41h0"></path>
<rect x="296" y="30" width="52" height="22"></rect>
<text x="322" y="45">Name</text>
</g>
<path d="M348 41h10"></path>
</g>
<path d="M358 41h10"></path>
<path d="M190 41a10 10 0 0 0 -10 10v0a10 10 0 0 0 10 10"></path>
<g>
<path d="M190 61h168"></path>
</g>
<path d="M358 61a10 10 0 0 0 10 -10v0a10 10 0 0 0 -10 -10"></path>
</g>
<path d="M368 41h20"></path>
</g>
<path d="M388 41h10"></path>
<g>
<path d="M398 41h0"></path>
<path d="M426 41h0"></path>
<rect x="398" y="30" width="28" height="22"></rect>
<text x="412" y="45">&#95;</text>
</g>
<path d="M426 41h10"></path>
<g>
<path d="M436 41h0"></path>
<path d="M644 41h0"></path>
<path d="M436 41a10 10 0 0 0 10 -10v0a10 10 0 0 1 10 -10"></path>
<g>
<path d="M456 21h168"></path>
</g>
<path d="M624 21a10 10 0 0 1 10 10v0a10 10 0 0 0 10 10"></path>
<path d="M436 41h20"></path>
<g>
<path d="M456 41h0"></path>
<path d="M624 41h0"></path>
<path d="M456 41h10"></path>
<g>
<path d="M466 41h0"></path>
<path d="M494 41h0"></path>
<rect x="466" y="30" width="28" height="22" rx="10" ry="10"></rect>
<text x="480" y="45">:</text>
</g>
<path d="M494 41h10"></path>
<path d="M504 41h10"></path>
<g>
<path d="M514 41h0"></path>
<path d="M542 41h0"></path>
<rect x="514" y="30" width="28" height="22"></rect>
<text x="528" y="45">&#95;</text>
</g>
<path d="M542 41h10"></path>
<path d="M552 41h10"></path>
<g>
<path d="M562 41h0"></path>
<path d="M614 41h0"></path>
<rect x="562" y="30" width="52" height="22"></rect>
<text x="588" y="45">Name</text>
</g>
<path d="M614 41h10"></path>
</g>
<path d="M624 41h20"></path>
</g>
</g>
<path d="M 644 41 h 20 m -10 -10 v 20 m 10 -20 v 20"></path>
</g>
</svg>
