<?xml version="1.0" standalone="no"?>
<!DOCTYPE svg PUBLIC "-//W3C//DTD SVG 1.1//EN"
  "http://www.w3.org/Graphics/SVG/1.1/DTD/svg11.dtd">
<svg xmlns="http://www.w3.org/2000/svg" version="1.1" class="railroad-diagram" width="637" height="72" viewBox="0 0 637 72">
<defs><style type="text/css"><![CDATA[ svg.railroad-diagram {
  background-color: hsl(30,20%,95%);
}
svg.railroad-diagram path {
  stroke-width: 3;
  stroke: black;
  fill: none;
}
svg.railroad-diagram text {
  font: bold 14px monospace;
  text-anchor: middle;
  cursor: pointer;
}
svg.railroad-diagram text.label {
  text-anchor: start;
}
svg.railroad-diagram text.comment {
  font: italic 12px monospace;
}
svg.railroad-diagram rect {
  stroke-width: 3;
  stroke: black;
  fill: hsl(120,100%,90%);
}
 ]]></style></defs>
<g transform="translate(.5 .5)">
<path d="M 20 31 v 20 m 10 -20 v 20 m -10 -10 h 20.5"></path>
<g>
<path d="M40 41h0"></path>
<path d="M596 41h0"></path>
<path d="M40 41h10"></path>
<g>
<path d="M50 41h0"></path>
<path d="M78 41h0"></path>
<rect x="50" y="30" width="28" height="22" rx="10" ry="10"></rect>
<text x="64" y="45">(</text>
</g>
<path d="M78 41h10"></path>
<path d="M88 41h10"></path>
<g>
<path d="M98 41h0"></path>
<path d="M126 41h0"></path>
<rect x="98" y="30" width="28" height="22"></rect>
<text x="112" y="45">&#95;</text>
</g>
<path d="M126 41h10"></path>
<g>
<path d="M136 41h0"></path>
<path d="M260 41h0"></path>
<path d="M136 41a10 10 0 0 0 10 -10v0a10 10 0 0 1 10 -10"></path>
<g>
<path d="M156 21h84"></path>
</g>
<path d="M240 21a10 10 0 0 1 10 10v0a10 10 0 0 0 10 10"></path>
<path d="M136 41h20"></path>
<g>
<path d="M156 41h0"></path>
<path d="M240 41h0"></path>
<rect x="156" y="30" width="84" height="22"></rect>
<text x="198" y="45">parlist1</text>
</g>
<path d="M240 41h20"></path>
</g>
<path d="M260 41h10"></path>
<g>
<path d="M270 41h0"></path>
<path d="M298 41h0"></path>
<rect x="270" y="30" width="28" height="22"></rect>
<text x="284" y="45">&#95;</text>
</g>
<path d="M298 41h10"></path>
<path d="M308 41h10"></path>
<g>
<path d="M318 41h0"></path>
<path d="M346 41h0"></path>
<rect x="318" y="30" width="28" height="22" rx="10" ry="10"></rect>
<text x="332" y="45">)</text>
</g>
<path d="M346 41h10"></path>
<path d="M356 41h10"></path>
<g>
<path d="M366 41h0"></path>
<path d="M394 41h0"></path>
<rect x="366" y="30" width="28" height="22"></rect>
<text x="380" y="45">&#95;</text>
</g>
<path d="M394 41h10"></path>
<path d="M404 41h10"></path>
<g>
<path d="M414 41h0"></path>
<path d="M474 41h0"></path>
<rect x="414" y="30" width="60" height="22"></rect>
<text x="444" y="45">block</text>
</g>
<path d="M474 41h10"></path>
<path d="M484 41h10"></path>
<g>
<path d="M494 41h0"></path>
<path d="M522 41h0"></path>
<rect x="494" y="30" width="28" height="22"></rect>
<text x="508" y="45">&#95;</text>
</g>
<path d="M522 41h10"></path>
<path d="M532 41h10"></path>
<g>
<path d="M542 41h0"></path>
<path d="M586 41h0"></path>
<rect x="542" y="30" width="44" height="22"></rect>
<text x="564" y="45">end</text>
</g>
<path d="M586 41h10"></path>
</g>
<path d="M 596 41 h 20 m -10 -10 v 20 m 10 -20 v 20"></path>
</g>
</svg>
