<?xml version="1.0" standalone="no"?>
<!DOCTYPE svg PUBLIC "-//W3C//DTD SVG 1.1//EN"
  "http://www.w3.org/Graphics/SVG/1.1/DTD/svg11.dtd">
<svg xmlns="http://www.w3.org/2000/svg" version="1.1" class="railroad-diagram" width="325" height="71" viewBox="0 0 325 71">
<defs><style type="text/css"><![CDATA[ svg.railroad-diagram {
  background-color: hsl(30,20%,95%);
}
svg.railroad-diagram path {
  stroke-width: 3;
  stroke: black;
  fill: none;
}
svg.railroad-diagram text {
  font: bold 14px monospace;
  text-anchor: middle;
  cursor: pointer;
}
svg.railroad-diagram text.label {
  text-anchor: start;
}
svg.railroad-diagram text.comment {
  font: italic 12px monospace;
}
svg.railroad-diagram rect {
  stroke-width: 3;
  stroke: black;
  fill: hsl(120,100%,90%);
}
 ]]></style></defs>
<g transform="translate(.5 .5)">
<path d="M 20 21 v 20 m 10 -20 v 20 m -10 -10 h 20.5"></path>
<g>
<path d="M40 31h0"></path>
<path d="M284 31h0"></path>
<path d="M40 31h10"></path>
<g>
<path d="M50 31h0"></path>
<path d="M118 31h0"></path>
<rect x="50" y="20" width="68" height="22"></rect>
<text x="84" y="35">prefix</text>
</g>
<path d="M118 31h10"></path>
<path d="M128 31h10"></path>
<g>
<path d="M138 31h0"></path>
<path d="M166 31h0"></path>
<rect x="138" y="20" width="28" height="22"></rect>
<text x="152" y="35">&#95;</text>
</g>
<path d="M166 31h10"></path>
<path d="M176 31h10"></path>
<g>
<path d="M186 31h0"></path>
<path d="M274 31h0"></path>
<path d="M186 31h10"></path>
<g>
<path d="M196 31h0"></path>
<path d="M264 31h0"></path>
<rect x="196" y="20" width="68" height="22"></rect>
<text x="230" y="35">suffix</text>
</g>
<path d="M264 31h10"></path>
<path d="M196 31a10 10 0 0 0 -10 10v0a10 10 0 0 0 10 10"></path>
<g>
<path d="M196 51h68"></path>
</g>
<path d="M264 51a10 10 0 0 0 10 -10v0a10 10 0 0 0 -10 -10"></path>
</g>
<path d="M274 31h10"></path>
</g>
<path d="M 284 31 h 20 m -10 -10 v 20 m 10 -20 v 20"></path>
</g>
</svg>
