<?xml version="1.0" standalone="no"?>
<!DOCTYPE svg PUBLIC "-//W3C//DTD SVG 1.1//EN"
  "http://www.w3.org/Graphics/SVG/1.1/DTD/svg11.dtd">
<svg xmlns="http://www.w3.org/2000/svg" version="1.1" class="railroad-diagram" width="425" height="102" viewBox="0 0 425 102">
<defs><style type="text/css"><![CDATA[ svg.railroad-diagram {
  background-color: hsl(30,20%,95%);
}
svg.railroad-diagram path {
  stroke-width: 3;
  stroke: black;
  fill: none;
}
svg.railroad-diagram text {
  font: bold 14px monospace;
  text-anchor: middle;
  cursor: pointer;
}
svg.railroad-diagram text.label {
  text-anchor: start;
}
svg.railroad-diagram text.comment {
  font: italic 12px monospace;
}
svg.railroad-diagram rect {
  stroke-width: 3;
  stroke: black;
  fill: hsl(120,100%,90%);
}
 ]]></style></defs>
<g transform="translate(.5 .5)">
<path d="M 20 31 v 20 m 10 -20 v 20 m -10 -10 h 20.5"></path>
<g>
<path d="M40 41h0"></path>
<path d="M384 41h0"></path>
<path d="M40 41h20"></path>
<g>
<path d="M60 41h0"></path>
<path d="M364 41h0"></path>
<path d="M60 41h10"></path>
<g>
<path d="M70 41h0"></path>
<path d="M154 41h0"></path>
<rect x="70" y="30" width="84" height="22"></rect>
<text x="112" y="45">namelist</text>
</g>
<path d="M154 41h10"></path>
<path d="M164 41h10"></path>
<g>
<path d="M174 41h0"></path>
<path d="M202 41h0"></path>
<rect x="174" y="30" width="28" height="22"></rect>
<text x="188" y="45">&#95;</text>
</g>
<path d="M202 41h10"></path>
<g>
<path d="M212 41h0"></path>
<path d="M364 41h0"></path>
<path d="M212 41a10 10 0 0 0 10 -10v0a10 10 0 0 1 10 -10"></path>
<g>
<path d="M232 21h112"></path>
</g>
<path d="M344 21a10 10 0 0 1 10 10v0a10 10 0 0 0 10 10"></path>
<path d="M212 41h20"></path>
<g>
<path d="M232 41h0"></path>
<path d="M344 41h0"></path>
<path d="M232 41h10"></path>
<g>
<path d="M242 41h0"></path>
<path d="M270 41h0"></path>
<rect x="242" y="30" width="28" height="22" rx="10" ry="10"></rect>
<text x="256" y="45">,</text>
</g>
<path d="M270 41h10"></path>
<path d="M280 41h10"></path>
<g>
<path d="M290 41h0"></path>
<path d="M334 41h0"></path>
<rect x="290" y="30" width="44" height="22" rx="10" ry="10"></rect>
<text x="312" y="45">...</text>
</g>
<path d="M334 41h10"></path>
</g>
<path d="M344 41h20"></path>
</g>
</g>
<path d="M364 41h20"></path>
<path d="M40 41a10 10 0 0 1 10 10v10a10 10 0 0 0 10 10"></path>
<g>
<path d="M60 71h130"></path>
<path d="M234 71h130"></path>
<rect x="190" y="60" width="44" height="22" rx="10" ry="10"></rect>
<text x="212" y="75">...</text>
</g>
<path d="M364 71a10 10 0 0 0 10 -10v-10a10 10 0 0 1 10 -10"></path>
</g>
<path d="M 384 41 h 20 m -10 -10 v 20 m 10 -20 v 20"></path>
</g>
</svg>
