<?xml version="1.0" standalone="no"?>
<!DOCTYPE svg PUBLIC "-//W3C//DTD SVG 1.1//EN"
  "http://www.w3.org/Graphics/SVG/1.1/DTD/svg11.dtd">
<svg xmlns="http://www.w3.org/2000/svg" version="1.1" class="railroad-diagram" width="1445" height="421" viewBox="0 0 1445 421">
<defs><style type="text/css"><![CDATA[ svg.railroad-diagram {
  background-color: hsl(30,20%,95%);
}
svg.railroad-diagram path {
  stroke-width: 3;
  stroke: black;
  fill: none;
}
svg.railroad-diagram text {
  font: bold 14px monospace;
  text-anchor: middle;
  cursor: pointer;
}
svg.railroad-diagram text.label {
  text-anchor: start;
}
svg.railroad-diagram text.comment {
  font: italic 12px monospace;
}
svg.railroad-diagram rect {
  stroke-width: 3;
  stroke: black;
  fill: hsl(120,100%,90%);
}
 ]]></style></defs>
<g transform="translate(.5 .5)">
<path d="M 20 21 v 20 m 10 -20 v 20 m -10 -10 h 20.5"></path>
<g>
<path d="M40 31h0"></path>
<path d="M1404 31h0"></path>
<path d="M40 31h20"></path>
<g>
<path d="M60 31h494"></path>
<path d="M890 31h494"></path>
<path d="M554 31h10"></path>
<g>
<path d="M564 31h0"></path>
<path d="M640 31h0"></path>
<rect x="564" y="20" width="76" height="22"></rect>
<text x="602" y="35">varlist</text>
</g>
<path d="M640 31h10"></path>
<path d="M650 31h10"></path>
<g>
<path d="M660 31h0"></path>
<path d="M688 31h0"></path>
<rect x="660" y="20" width="28" height="22"></rect>
<text x="674" y="35">&#95;</text>
</g>
<path d="M688 31h10"></path>
<path d="M698 31h10"></path>
<g>
<path d="M708 31h0"></path>
<path d="M736 31h0"></path>
<rect x="708" y="20" width="28" height="22" rx="10" ry="10"></rect>
<text x="722" y="35">=</text>
</g>
<path d="M736 31h10"></path>
<path d="M746 31h10"></path>
<g>
<path d="M756 31h0"></path>
<path d="M784 31h0"></path>
<rect x="756" y="20" width="28" height="22"></rect>
<text x="770" y="35">&#95;</text>
</g>
<path d="M784 31h10"></path>
<path d="M794 31h10"></path>
<g>
<path d="M804 31h0"></path>
<path d="M880 31h0"></path>
<rect x="804" y="20" width="76" height="22"></rect>
<text x="842" y="35">explist</text>
</g>
<path d="M880 31h10"></path>
</g>
<path d="M1384 31h20"></path>
<path d="M40 31a10 10 0 0 1 10 10v10a10 10 0 0 0 10 10"></path>
<g>
<path d="M60 61h604"></path>
<path d="M780 61h604"></path>
<rect x="664" y="50" width="116" height="22"></rect>
<text x="722" y="65">functioncall</text>
</g>
<path d="M1384 61a10 10 0 0 0 10 -10v-10a10 10 0 0 1 10 -10"></path>
<path d="M40 31a10 10 0 0 1 10 10v40a10 10 0 0 0 10 10"></path>
<g>
<path d="M60 91h514"></path>
<path d="M870 91h514"></path>
<path d="M574 91h10"></path>
<g>
<path d="M584 91h0"></path>
<path d="M620 91h0"></path>
<rect x="584" y="80" width="36" height="22"></rect>
<text x="602" y="95">do</text>
</g>
<path d="M620 91h10"></path>
<path d="M630 91h10"></path>
<g>
<path d="M640 91h0"></path>
<path d="M668 91h0"></path>
<rect x="640" y="80" width="28" height="22"></rect>
<text x="654" y="95">&#95;</text>
</g>
<path d="M668 91h10"></path>
<path d="M678 91h10"></path>
<g>
<path d="M688 91h0"></path>
<path d="M748 91h0"></path>
<rect x="688" y="80" width="60" height="22"></rect>
<text x="718" y="95">block</text>
</g>
<path d="M748 91h10"></path>
<path d="M758 91h10"></path>
<g>
<path d="M768 91h0"></path>
<path d="M796 91h0"></path>
<rect x="768" y="80" width="28" height="22"></rect>
<text x="782" y="95">&#95;</text>
</g>
<path d="M796 91h10"></path>
<path d="M806 91h10"></path>
<g>
<path d="M816 91h0"></path>
<path d="M860 91h0"></path>
<rect x="816" y="80" width="44" height="22"></rect>
<text x="838" y="95">end</text>
</g>
<path d="M860 91h10"></path>
</g>
<path d="M1384 91a10 10 0 0 0 10 -10v-40a10 10 0 0 1 10 -10"></path>
<path d="M40 31a10 10 0 0 1 10 10v70a10 10 0 0 0 10 10"></path>
<g>
<path d="M60 121h394"></path>
<path d="M990 121h394"></path>
<path d="M454 121h10"></path>
<g>
<path d="M464 121h0"></path>
<path d="M524 121h0"></path>
<rect x="464" y="110" width="60" height="22"></rect>
<text x="494" y="125">while</text>
</g>
<path d="M524 121h10"></path>
<path d="M534 121h10"></path>
<g>
<path d="M544 121h0"></path>
<path d="M572 121h0"></path>
<rect x="544" y="110" width="28" height="22"></rect>
<text x="558" y="125">&#95;</text>
</g>
<path d="M572 121h10"></path>
<path d="M582 121h10"></path>
<g>
<path d="M592 121h0"></path>
<path d="M636 121h0"></path>
<rect x="592" y="110" width="44" height="22"></rect>
<text x="614" y="125">exp</text>
</g>
<path d="M636 121h10"></path>
<path d="M646 121h10"></path>
<g>
<path d="M656 121h0"></path>
<path d="M684 121h0"></path>
<rect x="656" y="110" width="28" height="22"></rect>
<text x="670" y="125">&#95;</text>
</g>
<path d="M684 121h10"></path>
<path d="M694 121h10"></path>
<g>
<path d="M704 121h0"></path>
<path d="M740 121h0"></path>
<rect x="704" y="110" width="36" height="22"></rect>
<text x="722" y="125">do</text>
</g>
<path d="M740 121h10"></path>
<path d="M750 121h10"></path>
<g>
<path d="M760 121h0"></path>
<path d="M788 121h0"></path>
<rect x="760" y="110" width="28" height="22"></rect>
<text x="774" y="125">&#95;</text>
</g>
<path d="M788 121h10"></path>
<path d="M798 121h10"></path>
<g>
<path d="M808 121h0"></path>
<path d="M868 121h0"></path>
<rect x="808" y="110" width="60" height="22"></rect>
<text x="838" y="125">block</text>
</g>
<path d="M868 121h10"></path>
<path d="M878 121h10"></path>
<g>
<path d="M888 121h0"></path>
<path d="M916 121h0"></path>
<rect x="888" y="110" width="28" height="22"></rect>
<text x="902" y="125">&#95;</text>
</g>
<path d="M916 121h10"></path>
<path d="M926 121h10"></path>
<g>
<path d="M936 121h0"></path>
<path d="M980 121h0"></path>
<rect x="936" y="110" width="44" height="22"></rect>
<text x="958" y="125">end</text>
</g>
<path d="M980 121h10"></path>
</g>
<path d="M1384 121a10 10 0 0 0 10 -10v-70a10 10 0 0 1 10 -10"></path>
<path d="M40 31a10 10 0 0 1 10 10v100a10 10 0 0 0 10 10"></path>
<g>
<path d="M60 151h434"></path>
<path d="M950 151h434"></path>
<path d="M494 151h10"></path>
<g>
<path d="M504 151h0"></path>
<path d="M572 151h0"></path>
<rect x="504" y="140" width="68" height="22"></rect>
<text x="538" y="155">repeat</text>
</g>
<path d="M572 151h10"></path>
<path d="M582 151h10"></path>
<g>
<path d="M592 151h0"></path>
<path d="M620 151h0"></path>
<rect x="592" y="140" width="28" height="22"></rect>
<text x="606" y="155">&#95;</text>
</g>
<path d="M620 151h10"></path>
<path d="M630 151h10"></path>
<g>
<path d="M640 151h0"></path>
<path d="M700 151h0"></path>
<rect x="640" y="140" width="60" height="22"></rect>
<text x="670" y="155">block</text>
</g>
<path d="M700 151h10"></path>
<path d="M710 151h10"></path>
<g>
<path d="M720 151h0"></path>
<path d="M748 151h0"></path>
<rect x="720" y="140" width="28" height="22"></rect>
<text x="734" y="155">&#95;</text>
</g>
<path d="M748 151h10"></path>
<path d="M758 151h10"></path>
<g>
<path d="M768 151h0"></path>
<path d="M828 151h0"></path>
<rect x="768" y="140" width="60" height="22"></rect>
<text x="798" y="155">until</text>
</g>
<path d="M828 151h10"></path>
<path d="M838 151h10"></path>
<g>
<path d="M848 151h0"></path>
<path d="M876 151h0"></path>
<rect x="848" y="140" width="28" height="22"></rect>
<text x="862" y="155">&#95;</text>
</g>
<path d="M876 151h10"></path>
<path d="M886 151h10"></path>
<g>
<path d="M896 151h0"></path>
<path d="M940 151h0"></path>
<rect x="896" y="140" width="44" height="22"></rect>
<text x="918" y="155">exp</text>
</g>
<path d="M940 151h10"></path>
</g>
<path d="M1384 151a10 10 0 0 0 10 -10v-100a10 10 0 0 1 10 -10"></path>
<path d="M40 31a10 10 0 0 1 10 10v140a10 10 0 0 0 10 10"></path>
<g>
<path d="M60 191h0"></path>
<path d="M1384 191h0"></path>
<path d="M60 191h10"></path>
<g>
<path d="M70 191h0"></path>
<path d="M106 191h0"></path>
<rect x="70" y="180" width="36" height="22"></rect>
<text x="88" y="195">if</text>
</g>
<path d="M106 191h10"></path>
<path d="M116 191h10"></path>
<g>
<path d="M126 191h0"></path>
<path d="M154 191h0"></path>
<rect x="126" y="180" width="28" height="22"></rect>
<text x="140" y="195">&#95;</text>
</g>
<path d="M154 191h10"></path>
<path d="M164 191h10"></path>
<g>
<path d="M174 191h0"></path>
<path d="M218 191h0"></path>
<rect x="174" y="180" width="44" height="22"></rect>
<text x="196" y="195">exp</text>
</g>
<path d="M218 191h10"></path>
<path d="M228 191h10"></path>
<g>
<path d="M238 191h0"></path>
<path d="M266 191h0"></path>
<rect x="238" y="180" width="28" height="22"></rect>
<text x="252" y="195">&#95;</text>
</g>
<path d="M266 191h10"></path>
<path d="M276 191h10"></path>
<g>
<path d="M286 191h0"></path>
<path d="M338 191h0"></path>
<rect x="286" y="180" width="52" height="22"></rect>
<text x="312" y="195">then</text>
</g>
<path d="M338 191h10"></path>
<path d="M348 191h10"></path>
<g>
<path d="M358 191h0"></path>
<path d="M386 191h0"></path>
<rect x="358" y="180" width="28" height="22"></rect>
<text x="372" y="195">&#95;</text>
</g>
<path d="M386 191h10"></path>
<path d="M396 191h10"></path>
<g>
<path d="M406 191h0"></path>
<path d="M466 191h0"></path>
<rect x="406" y="180" width="60" height="22"></rect>
<text x="436" y="195">block</text>
</g>
<path d="M466 191h10"></path>
<path d="M476 191h10"></path>
<g>
<path d="M486 191h0"></path>
<path d="M514 191h0"></path>
<rect x="486" y="180" width="28" height="22"></rect>
<text x="500" y="195">&#95;</text>
</g>
<path d="M514 191h10"></path>
<g>
<path d="M524 191h0"></path>
<path d="M1032 191h0"></path>
<path d="M524 191a10 10 0 0 0 10 -10v0a10 10 0 0 1 10 -10"></path>
<g>
<path d="M544 171h468"></path>
</g>
<path d="M1012 171a10 10 0 0 1 10 10v0a10 10 0 0 0 10 10"></path>
<path d="M524 191h20"></path>
<g>
<path d="M544 191h0"></path>
<path d="M1012 191h0"></path>
<path d="M544 191h10"></path>
<g>
<path d="M554 191h0"></path>
<path d="M1002 191h0"></path>
<path d="M554 191h10"></path>
<g>
<path d="M564 191h0"></path>
<path d="M632 191h0"></path>
<rect x="564" y="180" width="68" height="22"></rect>
<text x="598" y="195">elseif</text>
</g>
<path d="M632 191h10"></path>
<path d="M642 191h10"></path>
<g>
<path d="M652 191h0"></path>
<path d="M680 191h0"></path>
<rect x="652" y="180" width="28" height="22"></rect>
<text x="666" y="195">&#95;</text>
</g>
<path d="M680 191h10"></path>
<path d="M690 191h10"></path>
<g>
<path d="M700 191h0"></path>
<path d="M744 191h0"></path>
<rect x="700" y="180" width="44" height="22"></rect>
<text x="722" y="195">exp</text>
</g>
<path d="M744 191h10"></path>
<path d="M754 191h10"></path>
<g>
<path d="M764 191h0"></path>
<path d="M792 191h0"></path>
<rect x="764" y="180" width="28" height="22"></rect>
<text x="778" y="195">&#95;</text>
</g>
<path d="M792 191h10"></path>
<path d="M802 191h10"></path>
<g>
<path d="M812 191h0"></path>
<path d="M864 191h0"></path>
<rect x="812" y="180" width="52" height="22"></rect>
<text x="838" y="195">then</text>
</g>
<path d="M864 191h10"></path>
<path d="M874 191h10"></path>
<g>
<path d="M884 191h0"></path>
<path d="M912 191h0"></path>
<rect x="884" y="180" width="28" height="22"></rect>
<text x="898" y="195">&#95;</text>
</g>
<path d="M912 191h10"></path>
<path d="M922 191h10"></path>
<g>
<path d="M932 191h0"></path>
<path d="M992 191h0"></path>
<rect x="932" y="180" width="60" height="22"></rect>
<text x="962" y="195">block</text>
</g>
<path d="M992 191h10"></path>
</g>
<path d="M1002 191h10"></path>
<path d="M554 191a10 10 0 0 0 -10 10v0a10 10 0 0 0 10 10"></path>
<g>
<path d="M554 211h448"></path>
</g>
<path d="M1002 211a10 10 0 0 0 10 -10v0a10 10 0 0 0 -10 -10"></path>
</g>
<path d="M1012 191h20"></path>
</g>
<g>
<path d="M1032 191h0"></path>
<path d="M1272 191h0"></path>
<path d="M1032 191a10 10 0 0 0 10 -10v0a10 10 0 0 1 10 -10"></path>
<g>
<path d="M1052 171h200"></path>
</g>
<path d="M1252 171a10 10 0 0 1 10 10v0a10 10 0 0 0 10 10"></path>
<path d="M1032 191h20"></path>
<g>
<path d="M1052 191h0"></path>
<path d="M1252 191h0"></path>
<path d="M1052 191h10"></path>
<g>
<path d="M1062 191h0"></path>
<path d="M1114 191h0"></path>
<rect x="1062" y="180" width="52" height="22"></rect>
<text x="1088" y="195">else</text>
</g>
<path d="M1114 191h10"></path>
<path d="M1124 191h10"></path>
<g>
<path d="M1134 191h0"></path>
<path d="M1162 191h0"></path>
<rect x="1134" y="180" width="28" height="22"></rect>
<text x="1148" y="195">&#95;</text>
</g>
<path d="M1162 191h10"></path>
<path d="M1172 191h10"></path>
<g>
<path d="M1182 191h0"></path>
<path d="M1242 191h0"></path>
<rect x="1182" y="180" width="60" height="22"></rect>
<text x="1212" y="195">block</text>
</g>
<path d="M1242 191h10"></path>
</g>
<path d="M1252 191h20"></path>
</g>
<path d="M1272 191h10"></path>
<g>
<path d="M1282 191h0"></path>
<path d="M1310 191h0"></path>
<rect x="1282" y="180" width="28" height="22"></rect>
<text x="1296" y="195">&#95;</text>
</g>
<path d="M1310 191h10"></path>
<path d="M1320 191h10"></path>
<g>
<path d="M1330 191h0"></path>
<path d="M1374 191h0"></path>
<rect x="1330" y="180" width="44" height="22"></rect>
<text x="1352" y="195">end</text>
</g>
<path d="M1374 191h10"></path>
</g>
<path d="M1384 191a10 10 0 0 0 10 -10v-140a10 10 0 0 1 10 -10"></path>
<path d="M40 31a10 10 0 0 1 10 10v189a10 10 0 0 0 10 10"></path>
<g>
<path d="M60 240h66"></path>
<path d="M1318 240h66"></path>
<path d="M126 240h10"></path>
<g>
<path d="M136 240h0"></path>
<path d="M180 240h0"></path>
<rect x="136" y="229" width="44" height="22"></rect>
<text x="158" y="244">for</text>
</g>
<path d="M180 240h10"></path>
<path d="M190 240h10"></path>
<g>
<path d="M200 240h0"></path>
<path d="M228 240h0"></path>
<rect x="200" y="229" width="28" height="22"></rect>
<text x="214" y="244">&#95;</text>
</g>
<path d="M228 240h10"></path>
<path d="M238 240h10"></path>
<g>
<path d="M248 240h0"></path>
<path d="M300 240h0"></path>
<rect x="248" y="229" width="52" height="22"></rect>
<text x="274" y="244">Name</text>
</g>
<path d="M300 240h10"></path>
<path d="M310 240h10"></path>
<g>
<path d="M320 240h0"></path>
<path d="M348 240h0"></path>
<rect x="320" y="229" width="28" height="22"></rect>
<text x="334" y="244">&#95;</text>
</g>
<path d="M348 240h10"></path>
<path d="M358 240h10"></path>
<g>
<path d="M368 240h0"></path>
<path d="M396 240h0"></path>
<rect x="368" y="229" width="28" height="22" rx="10" ry="10"></rect>
<text x="382" y="244">=</text>
</g>
<path d="M396 240h10"></path>
<path d="M406 240h10"></path>
<g>
<path d="M416 240h0"></path>
<path d="M444 240h0"></path>
<rect x="416" y="229" width="28" height="22"></rect>
<text x="430" y="244">&#95;</text>
</g>
<path d="M444 240h10"></path>
<path d="M454 240h10"></path>
<g>
<path d="M464 240h0"></path>
<path d="M508 240h0"></path>
<rect x="464" y="229" width="44" height="22"></rect>
<text x="486" y="244">exp</text>
</g>
<path d="M508 240h10"></path>
<path d="M518 240h10"></path>
<g>
<path d="M528 240h0"></path>
<path d="M556 240h0"></path>
<rect x="528" y="229" width="28" height="22"></rect>
<text x="542" y="244">&#95;</text>
</g>
<path d="M556 240h10"></path>
<path d="M566 240h10"></path>
<g>
<path d="M576 240h0"></path>
<path d="M604 240h0"></path>
<rect x="576" y="229" width="28" height="22" rx="10" ry="10"></rect>
<text x="590" y="244">,</text>
</g>
<path d="M604 240h10"></path>
<path d="M614 240h10"></path>
<g>
<path d="M624 240h0"></path>
<path d="M652 240h0"></path>
<rect x="624" y="229" width="28" height="22"></rect>
<text x="638" y="244">&#95;</text>
</g>
<path d="M652 240h10"></path>
<path d="M662 240h10"></path>
<g>
<path d="M672 240h0"></path>
<path d="M716 240h0"></path>
<rect x="672" y="229" width="44" height="22"></rect>
<text x="694" y="244">exp</text>
</g>
<path d="M716 240h10"></path>
<path d="M726 240h10"></path>
<g>
<path d="M736 240h0"></path>
<path d="M764 240h0"></path>
<rect x="736" y="229" width="28" height="22"></rect>
<text x="750" y="244">&#95;</text>
</g>
<path d="M764 240h10"></path>
<g>
<path d="M774 240h0"></path>
<path d="M974 240h0"></path>
<path d="M774 240a10 10 0 0 0 10 -10v0a10 10 0 0 1 10 -10"></path>
<g>
<path d="M794 220h160"></path>
</g>
<path d="M954 220a10 10 0 0 1 10 10v0a10 10 0 0 0 10 10"></path>
<path d="M774 240h20"></path>
<g>
<path d="M794 240h0"></path>
<path d="M954 240h0"></path>
<path d="M794 240h10"></path>
<g>
<path d="M804 240h0"></path>
<path d="M832 240h0"></path>
<rect x="804" y="229" width="28" height="22" rx="10" ry="10"></rect>
<text x="818" y="244">,</text>
</g>
<path d="M832 240h10"></path>
<path d="M842 240h10"></path>
<g>
<path d="M852 240h0"></path>
<path d="M880 240h0"></path>
<rect x="852" y="229" width="28" height="22"></rect>
<text x="866" y="244">&#95;</text>
</g>
<path d="M880 240h10"></path>
<path d="M890 240h10"></path>
<g>
<path d="M900 240h0"></path>
<path d="M944 240h0"></path>
<rect x="900" y="229" width="44" height="22"></rect>
<text x="922" y="244">exp</text>
</g>
<path d="M944 240h10"></path>
</g>
<path d="M954 240h20"></path>
</g>
<path d="M974 240h10"></path>
<g>
<path d="M984 240h0"></path>
<path d="M1012 240h0"></path>
<rect x="984" y="229" width="28" height="22"></rect>
<text x="998" y="244">&#95;</text>
</g>
<path d="M1012 240h10"></path>
<path d="M1022 240h10"></path>
<g>
<path d="M1032 240h0"></path>
<path d="M1068 240h0"></path>
<rect x="1032" y="229" width="36" height="22"></rect>
<text x="1050" y="244">do</text>
</g>
<path d="M1068 240h10"></path>
<path d="M1078 240h10"></path>
<g>
<path d="M1088 240h0"></path>
<path d="M1116 240h0"></path>
<rect x="1088" y="229" width="28" height="22"></rect>
<text x="1102" y="244">&#95;</text>
</g>
<path d="M1116 240h10"></path>
<path d="M1126 240h10"></path>
<g>
<path d="M1136 240h0"></path>
<path d="M1196 240h0"></path>
<rect x="1136" y="229" width="60" height="22"></rect>
<text x="1166" y="244">block</text>
</g>
<path d="M1196 240h10"></path>
<path d="M1206 240h10"></path>
<g>
<path d="M1216 240h0"></path>
<path d="M1244 240h0"></path>
<rect x="1216" y="229" width="28" height="22"></rect>
<text x="1230" y="244">&#95;</text>
</g>
<path d="M1244 240h10"></path>
<path d="M1254 240h10"></path>
<g>
<path d="M1264 240h0"></path>
<path d="M1308 240h0"></path>
<rect x="1264" y="229" width="44" height="22"></rect>
<text x="1286" y="244">end</text>
</g>
<path d="M1308 240h10"></path>
</g>
<path d="M1384 240a10 10 0 0 0 10 -10v-189a10 10 0 0 1 10 -10"></path>
<path d="M40 31a10 10 0 0 1 10 10v219a10 10 0 0 0 10 10"></path>
<g>
<path d="M60 270h258"></path>
<path d="M1126 270h258"></path>
<path d="M318 270h10"></path>
<g>
<path d="M328 270h0"></path>
<path d="M372 270h0"></path>
<rect x="328" y="259" width="44" height="22"></rect>
<text x="350" y="274">for</text>
</g>
<path d="M372 270h10"></path>
<path d="M382 270h10"></path>
<g>
<path d="M392 270h0"></path>
<path d="M420 270h0"></path>
<rect x="392" y="259" width="28" height="22"></rect>
<text x="406" y="274">&#95;</text>
</g>
<path d="M420 270h10"></path>
<path d="M430 270h10"></path>
<g>
<path d="M440 270h0"></path>
<path d="M524 270h0"></path>
<rect x="440" y="259" width="84" height="22"></rect>
<text x="482" y="274">namelist</text>
</g>
<path d="M524 270h10"></path>
<path d="M534 270h10"></path>
<g>
<path d="M544 270h0"></path>
<path d="M572 270h0"></path>
<rect x="544" y="259" width="28" height="22"></rect>
<text x="558" y="274">&#95;</text>
</g>
<path d="M572 270h10"></path>
<path d="M582 270h10"></path>
<g>
<path d="M592 270h0"></path>
<path d="M628 270h0"></path>
<rect x="592" y="259" width="36" height="22"></rect>
<text x="610" y="274">in</text>
</g>
<path d="M628 270h10"></path>
<path d="M638 270h10"></path>
<g>
<path d="M648 270h0"></path>
<path d="M676 270h0"></path>
<rect x="648" y="259" width="28" height="22"></rect>
<text x="662" y="274">&#95;</text>
</g>
<path d="M676 270h10"></path>
<path d="M686 270h10"></path>
<g>
<path d="M696 270h0"></path>
<path d="M772 270h0"></path>
<rect x="696" y="259" width="76" height="22"></rect>
<text x="734" y="274">explist</text>
</g>
<path d="M772 270h10"></path>
<path d="M782 270h10"></path>
<g>
<path d="M792 270h0"></path>
<path d="M820 270h0"></path>
<rect x="792" y="259" width="28" height="22"></rect>
<text x="806" y="274">&#95;</text>
</g>
<path d="M820 270h10"></path>
<path d="M830 270h10"></path>
<g>
<path d="M840 270h0"></path>
<path d="M876 270h0"></path>
<rect x="840" y="259" width="36" height="22"></rect>
<text x="858" y="274">do</text>
</g>
<path d="M876 270h10"></path>
<path d="M886 270h10"></path>
<g>
<path d="M896 270h0"></path>
<path d="M924 270h0"></path>
<rect x="896" y="259" width="28" height="22"></rect>
<text x="910" y="274">&#95;</text>
</g>
<path d="M924 270h10"></path>
<path d="M934 270h10"></path>
<g>
<path d="M944 270h0"></path>
<path d="M1004 270h0"></path>
<rect x="944" y="259" width="60" height="22"></rect>
<text x="974" y="274">block</text>
</g>
<path d="M1004 270h10"></path>
<path d="M1014 270h10"></path>
<g>
<path d="M1024 270h0"></path>
<path d="M1052 270h0"></path>
<rect x="1024" y="259" width="28" height="22"></rect>
<text x="1038" y="274">&#95;</text>
</g>
<path d="M1052 270h10"></path>
<path d="M1062 270h10"></path>
<g>
<path d="M1072 270h0"></path>
<path d="M1116 270h0"></path>
<rect x="1072" y="259" width="44" height="22"></rect>
<text x="1094" y="274">end</text>
</g>
<path d="M1116 270h10"></path>
</g>
<path d="M1384 270a10 10 0 0 0 10 -10v-219a10 10 0 0 1 10 -10"></path>
<path d="M40 31a10 10 0 0 1 10 10v249a10 10 0 0 0 10 10"></path>
<g>
<path d="M60 300h458"></path>
<path d="M926 300h458"></path>
<path d="M518 300h10"></path>
<g>
<path d="M528 300h0"></path>
<path d="M612 300h0"></path>
<rect x="528" y="289" width="84" height="22" rx="10" ry="10"></rect>
<text x="570" y="304">function</text>
</g>
<path d="M612 300h10"></path>
<path d="M622 300h10"></path>
<g>
<path d="M632 300h0"></path>
<path d="M660 300h0"></path>
<rect x="632" y="289" width="28" height="22"></rect>
<text x="646" y="304">&#95;</text>
</g>
<path d="M660 300h10"></path>
<path d="M670 300h10"></path>
<g>
<path d="M680 300h0"></path>
<path d="M764 300h0"></path>
<rect x="680" y="289" width="84" height="22"></rect>
<text x="722" y="304">funcname</text>
</g>
<path d="M764 300h10"></path>
<path d="M774 300h10"></path>
<g>
<path d="M784 300h0"></path>
<path d="M812 300h0"></path>
<rect x="784" y="289" width="28" height="22"></rect>
<text x="798" y="304">&#95;</text>
</g>
<path d="M812 300h10"></path>
<path d="M822 300h10"></path>
<g>
<path d="M832 300h0"></path>
<path d="M916 300h0"></path>
<rect x="832" y="289" width="84" height="22"></rect>
<text x="874" y="304">funcbody</text>
</g>
<path d="M916 300h10"></path>
</g>
<path d="M1384 300a10 10 0 0 0 10 -10v-249a10 10 0 0 1 10 -10"></path>
<path d="M40 31a10 10 0 0 1 10 10v279a10 10 0 0 0 10 10"></path>
<g>
<path d="M60 330h410"></path>
<path d="M974 330h410"></path>
<path d="M470 330h10"></path>
<g>
<path d="M480 330h0"></path>
<path d="M540 330h0"></path>
<rect x="480" y="319" width="60" height="22"></rect>
<text x="510" y="334">local</text>
</g>
<path d="M540 330h10"></path>
<path d="M550 330h10"></path>
<g>
<path d="M560 330h0"></path>
<path d="M588 330h0"></path>
<rect x="560" y="319" width="28" height="22"></rect>
<text x="574" y="334">&#95;</text>
</g>
<path d="M588 330h10"></path>
<path d="M598 330h10"></path>
<g>
<path d="M608 330h0"></path>
<path d="M692 330h0"></path>
<rect x="608" y="319" width="84" height="22" rx="10" ry="10"></rect>
<text x="650" y="334">function</text>
</g>
<path d="M692 330h10"></path>
<path d="M702 330h10"></path>
<g>
<path d="M712 330h0"></path>
<path d="M740 330h0"></path>
<rect x="712" y="319" width="28" height="22"></rect>
<text x="726" y="334">&#95;</text>
</g>
<path d="M740 330h10"></path>
<path d="M750 330h10"></path>
<g>
<path d="M760 330h0"></path>
<path d="M812 330h0"></path>
<rect x="760" y="319" width="52" height="22"></rect>
<text x="786" y="334">Name</text>
</g>
<path d="M812 330h10"></path>
<path d="M822 330h10"></path>
<g>
<path d="M832 330h0"></path>
<path d="M860 330h0"></path>
<rect x="832" y="319" width="28" height="22"></rect>
<text x="846" y="334">&#95;</text>
</g>
<path d="M860 330h10"></path>
<path d="M870 330h10"></path>
<g>
<path d="M880 330h0"></path>
<path d="M964 330h0"></path>
<rect x="880" y="319" width="84" height="22"></rect>
<text x="922" y="334">funcbody</text>
</g>
<path d="M964 330h10"></path>
</g>
<path d="M1384 330a10 10 0 0 0 10 -10v-279a10 10 0 0 1 10 -10"></path>
<path d="M40 31a10 10 0 0 1 10 10v309a10 10 0 0 0 10 10"></path>
<g>
<path d="M60 360h426"></path>
<path d="M958 360h426"></path>
<path d="M486 360h10"></path>
<g>
<path d="M496 360h0"></path>
<path d="M556 360h0"></path>
<rect x="496" y="349" width="60" height="22"></rect>
<text x="526" y="364">local</text>
</g>
<path d="M556 360h10"></path>
<path d="M566 360h10"></path>
<g>
<path d="M576 360h0"></path>
<path d="M604 360h0"></path>
<rect x="576" y="349" width="28" height="22"></rect>
<text x="590" y="364">&#95;</text>
</g>
<path d="M604 360h10"></path>
<path d="M614 360h10"></path>
<g>
<path d="M624 360h0"></path>
<path d="M708 360h0"></path>
<rect x="624" y="349" width="84" height="22"></rect>
<text x="666" y="364">namelist</text>
</g>
<path d="M708 360h10"></path>
<path d="M718 360h10"></path>
<g>
<path d="M728 360h0"></path>
<path d="M756 360h0"></path>
<rect x="728" y="349" width="28" height="22"></rect>
<text x="742" y="364">&#95;</text>
</g>
<path d="M756 360h10"></path>
<path d="M766 360h10"></path>
<g>
<path d="M776 360h0"></path>
<path d="M804 360h0"></path>
<rect x="776" y="349" width="28" height="22" rx="10" ry="10"></rect>
<text x="790" y="364">=</text>
</g>
<path d="M804 360h10"></path>
<path d="M814 360h10"></path>
<g>
<path d="M824 360h0"></path>
<path d="M852 360h0"></path>
<rect x="824" y="349" width="28" height="22"></rect>
<text x="838" y="364">&#95;</text>
</g>
<path d="M852 360h10"></path>
<path d="M862 360h10"></path>
<g>
<path d="M872 360h0"></path>
<path d="M948 360h0"></path>
<rect x="872" y="349" width="76" height="22"></rect>
<text x="910" y="364">explist</text>
</g>
<path d="M948 360h10"></path>
</g>
<path d="M1384 360a10 10 0 0 0 10 -10v-309a10 10 0 0 1 10 -10"></path>
<path d="M40 31a10 10 0 0 1 10 10v339a10 10 0 0 0 10 10"></path>
<g>
<path d="M60 390h546"></path>
<path d="M838 390h546"></path>
<path d="M606 390h10"></path>
<g>
<path d="M616 390h0"></path>
<path d="M676 390h0"></path>
<rect x="616" y="379" width="60" height="22"></rect>
<text x="646" y="394">local</text>
</g>
<path d="M676 390h10"></path>
<path d="M686 390h10"></path>
<g>
<path d="M696 390h0"></path>
<path d="M724 390h0"></path>
<rect x="696" y="379" width="28" height="22"></rect>
<text x="710" y="394">&#95;</text>
</g>
<path d="M724 390h10"></path>
<path d="M734 390h10"></path>
<g>
<path d="M744 390h0"></path>
<path d="M828 390h0"></path>
<rect x="744" y="379" width="84" height="22"></rect>
<text x="786" y="394">namelist</text>
</g>
<path d="M828 390h10"></path>
</g>
<path d="M1384 390a10 10 0 0 0 10 -10v-339a10 10 0 0 1 10 -10"></path>
</g>
<path d="M 1404 31 h 20 m -10 -10 v 20 m 10 -20 v 20"></path>
</g>
</svg>
