<?xml version="1.0" standalone="no"?>
<!DOCTYPE svg PUBLIC "-//W3C//DTD SVG 1.1//EN"
  "http://www.w3.org/Graphics/SVG/1.1/DTD/svg11.dtd">
<svg xmlns="http://www.w3.org/2000/svg" version="1.1" class="railroad-diagram" width="465" height="130" viewBox="0 0 465 130">
<defs><style type="text/css"><![CDATA[ svg.railroad-diagram {
  background-color: hsl(30,20%,95%);
}
svg.railroad-diagram path {
  stroke-width: 3;
  stroke: black;
  fill: none;
}
svg.railroad-diagram text {
  font: bold 14px monospace;
  text-anchor: middle;
  cursor: pointer;
}
svg.railroad-diagram text.label {
  text-anchor: start;
}
svg.railroad-diagram text.comment {
  font: italic 12px monospace;
}
svg.railroad-diagram rect {
  stroke-width: 3;
  stroke: black;
  fill: hsl(120,100%,90%);
}
 ]]></style></defs>
<g transform="translate(.5 .5)">
<path d="M 20 31 v 20 m 10 -20 v 20 m -10 -10 h 20.5"></path>
<g>
<path d="M40 41h0"></path>
<path d="M424 41h0"></path>
<path d="M40 41h20"></path>
<g>
<path d="M60 41h0"></path>
<path d="M404 41h0"></path>
<path d="M60 41h10"></path>
<g>
<path d="M70 41h0"></path>
<path d="M98 41h0"></path>
<rect x="70" y="30" width="28" height="22" rx="10" ry="10"></rect>
<text x="84" y="45">"</text>
</g>
<path d="M98 41h10"></path>
<g>
<path d="M108 41h0"></path>
<path d="M356 41h0"></path>
<path d="M108 41a10 10 0 0 0 10 -10v0a10 10 0 0 1 10 -10"></path>
<g>
<path d="M128 21h208"></path>
</g>
<path d="M336 21a10 10 0 0 1 10 10v0a10 10 0 0 0 10 10"></path>
<path d="M108 41h20"></path>
<g>
<path d="M128 41h0"></path>
<path d="M336 41h0"></path>
<path d="M128 41h10"></path>
<g>
<path d="M138 41h0"></path>
<path d="M326 41h0"></path>
<rect x="138" y="30" width="188" height="22"></rect>
<text x="232" y="45">DoubleStringCharacter</text>
</g>
<path d="M326 41h10"></path>
<path d="M138 41a10 10 0 0 0 -10 10v0a10 10 0 0 0 10 10"></path>
<g>
<path d="M138 61h188"></path>
</g>
<path d="M326 61a10 10 0 0 0 10 -10v0a10 10 0 0 0 -10 -10"></path>
</g>
<path d="M336 41h20"></path>
</g>
<path d="M356 41h10"></path>
<g>
<path d="M366 41h0"></path>
<path d="M394 41h0"></path>
<rect x="366" y="30" width="28" height="22" rx="10" ry="10"></rect>
<text x="380" y="45">"</text>
</g>
<path d="M394 41h10"></path>
</g>
<path d="M404 41h20"></path>
<path d="M40 41a10 10 0 0 1 10 10v29a10 10 0 0 0 10 10"></path>
<g>
<path d="M60 90h0"></path>
<path d="M404 90h0"></path>
<path d="M60 90h10"></path>
<g>
<path d="M70 90h0"></path>
<path d="M98 90h0"></path>
<rect x="70" y="79" width="28" height="22" rx="10" ry="10"></rect>
<text x="84" y="94">'</text>
</g>
<path d="M98 90h10"></path>
<g>
<path d="M108 90h0"></path>
<path d="M356 90h0"></path>
<path d="M108 90a10 10 0 0 0 10 -10v0a10 10 0 0 1 10 -10"></path>
<g>
<path d="M128 70h208"></path>
</g>
<path d="M336 70a10 10 0 0 1 10 10v0a10 10 0 0 0 10 10"></path>
<path d="M108 90h20"></path>
<g>
<path d="M128 90h0"></path>
<path d="M336 90h0"></path>
<path d="M128 90h10"></path>
<g>
<path d="M138 90h0"></path>
<path d="M326 90h0"></path>
<rect x="138" y="79" width="188" height="22"></rect>
<text x="232" y="94">SingleStringCharacter</text>
</g>
<path d="M326 90h10"></path>
<path d="M138 90a10 10 0 0 0 -10 10v0a10 10 0 0 0 10 10"></path>
<g>
<path d="M138 110h188"></path>
</g>
<path d="M326 110a10 10 0 0 0 10 -10v0a10 10 0 0 0 -10 -10"></path>
</g>
<path d="M336 90h20"></path>
</g>
<path d="M356 90h10"></path>
<g>
<path d="M366 90h0"></path>
<path d="M394 90h0"></path>
<rect x="366" y="79" width="28" height="22" rx="10" ry="10"></rect>
<text x="380" y="94">'</text>
</g>
<path d="M394 90h10"></path>
</g>
<path d="M404 90a10 10 0 0 0 10 -10v-29a10 10 0 0 1 10 -10"></path>
</g>
<path d="M 424 41 h 20 m -10 -10 v 20 m 10 -20 v 20"></path>
</g>
</svg>
