<?xml version="1.0" standalone="no"?>
<!DOCTYPE svg PUBLIC "-//W3C//DTD SVG 1.1//EN"
  "http://www.w3.org/Graphics/SVG/1.1/DTD/svg11.dtd">
<svg xmlns="http://www.w3.org/2000/svg" version="1.1" class="railroad-diagram" width="281" height="362" viewBox="0 0 281 362">
<defs><style type="text/css"><![CDATA[ svg.railroad-diagram {
  background-color: hsl(30,20%,95%);
}
svg.railroad-diagram path {
  stroke-width: 3;
  stroke: black;
  fill: none;
}
svg.railroad-diagram text {
  font: bold 14px monospace;
  text-anchor: middle;
  cursor: pointer;
}
svg.railroad-diagram text.label {
  text-anchor: start;
}
svg.railroad-diagram text.comment {
  font: italic 12px monospace;
}
svg.railroad-diagram rect {
  stroke-width: 3;
  stroke: black;
  fill: hsl(120,100%,90%);
}
 ]]></style></defs>
<g transform="translate(.5 .5)">
<path d="M 20 21 v 20 m 10 -20 v 20 m -10 -10 h 20.5"></path>
<g>
<path d="M40 31h0"></path>
<path d="M240 31h0"></path>
<path d="M40 31h20"></path>
<g>
<path d="M60 31h58"></path>
<path d="M162 31h58"></path>
<rect x="118" y="20" width="44" height="22"></rect>
<text x="140" y="35">nil</text>
</g>
<path d="M220 31h20"></path>
<path d="M40 31a10 10 0 0 1 10 10v10a10 10 0 0 0 10 10"></path>
<g>
<path d="M60 61h50"></path>
<path d="M170 61h50"></path>
<rect x="110" y="50" width="60" height="22"></rect>
<text x="140" y="65">false</text>
</g>
<path d="M220 61a10 10 0 0 0 10 -10v-10a10 10 0 0 1 10 -10"></path>
<path d="M40 31a10 10 0 0 1 10 10v40a10 10 0 0 0 10 10"></path>
<g>
<path d="M60 91h54"></path>
<path d="M166 91h54"></path>
<rect x="114" y="80" width="52" height="22"></rect>
<text x="140" y="95">true</text>
</g>
<path d="M220 91a10 10 0 0 0 10 -10v-40a10 10 0 0 1 10 -10"></path>
<path d="M40 31a10 10 0 0 1 10 10v70a10 10 0 0 0 10 10"></path>
<g>
<path d="M60 121h46"></path>
<path d="M174 121h46"></path>
<rect x="106" y="110" width="68" height="22"></rect>
<text x="140" y="125">Number</text>
</g>
<path d="M220 121a10 10 0 0 0 10 -10v-70a10 10 0 0 1 10 -10"></path>
<path d="M40 31a10 10 0 0 1 10 10v100a10 10 0 0 0 10 10"></path>
<g>
<path d="M60 151h46"></path>
<path d="M174 151h46"></path>
<rect x="106" y="140" width="68" height="22"></rect>
<text x="140" y="155">String</text>
</g>
<path d="M220 151a10 10 0 0 0 10 -10v-100a10 10 0 0 1 10 -10"></path>
<path d="M40 31a10 10 0 0 1 10 10v130a10 10 0 0 0 10 10"></path>
<g>
<path d="M60 181h58"></path>
<path d="M162 181h58"></path>
<rect x="118" y="170" width="44" height="22" rx="10" ry="10"></rect>
<text x="140" y="185">...</text>
</g>
<path d="M220 181a10 10 0 0 0 10 -10v-130a10 10 0 0 1 10 -10"></path>
<path d="M40 31a10 10 0 0 1 10 10v160a10 10 0 0 0 10 10"></path>
<g>
<path d="M60 211h38"></path>
<path d="M182 211h38"></path>
<rect x="98" y="200" width="84" height="22"></rect>
<text x="140" y="215">function</text>
</g>
<path d="M220 211a10 10 0 0 0 10 -10v-160a10 10 0 0 1 10 -10"></path>
<path d="M40 31a10 10 0 0 1 10 10v190a10 10 0 0 0 10 10"></path>
<g>
<path d="M60 241h6"></path>
<path d="M214 241h6"></path>
<rect x="66" y="230" width="148" height="22"></rect>
<text x="140" y="245">tableconstructor</text>
</g>
<path d="M220 241a10 10 0 0 0 10 -10v-190a10 10 0 0 1 10 -10"></path>
<path d="M40 31a10 10 0 0 1 10 10v220a10 10 0 0 0 10 10"></path>
<g>
<path d="M60 271h22"></path>
<path d="M198 271h22"></path>
<rect x="82" y="260" width="116" height="22"></rect>
<text x="140" y="275">functioncall</text>
</g>
<path d="M220 271a10 10 0 0 0 10 -10v-220a10 10 0 0 1 10 -10"></path>
<path d="M40 31a10 10 0 0 1 10 10v250a10 10 0 0 0 10 10"></path>
<g>
<path d="M60 301h58"></path>
<path d="M162 301h58"></path>
<rect x="118" y="290" width="44" height="22"></rect>
<text x="140" y="305">var</text>
</g>
<path d="M220 301a10 10 0 0 0 10 -10v-250a10 10 0 0 1 10 -10"></path>
<path d="M40 31a10 10 0 0 1 10 10v280a10 10 0 0 0 10 10"></path>
<g>
<path d="M60 331h0"></path>
<path d="M220 331h0"></path>
<path d="M60 331h10"></path>
<g>
<path d="M70 331h0"></path>
<path d="M98 331h0"></path>
<rect x="70" y="320" width="28" height="22" rx="10" ry="10"></rect>
<text x="84" y="335">(</text>
</g>
<path d="M98 331h10"></path>
<path d="M108 331h10"></path>
<g>
<path d="M118 331h0"></path>
<path d="M162 331h0"></path>
<rect x="118" y="320" width="44" height="22"></rect>
<text x="140" y="335">exp</text>
</g>
<path d="M162 331h10"></path>
<path d="M172 331h10"></path>
<g>
<path d="M182 331h0"></path>
<path d="M210 331h0"></path>
<rect x="182" y="320" width="28" height="22" rx="10" ry="10"></rect>
<text x="196" y="335">)</text>
</g>
<path d="M210 331h10"></path>
</g>
<path d="M220 331a10 10 0 0 0 10 -10v-280a10 10 0 0 1 10 -10"></path>
</g>
<path d="M 240 31 h 20 m -10 -10 v 20 m 10 -20 v 20"></path>
</g>
</svg>
