<?xml version="1.0" standalone="no"?>
<!DOCTYPE svg PUBLIC "-//W3C//DTD SVG 1.1//EN"
  "http://www.w3.org/Graphics/SVG/1.1/DTD/svg11.dtd">
<svg xmlns="http://www.w3.org/2000/svg" version="1.1" class="railroad-diagram" width="365" height="101" viewBox="0 0 365 101">
<defs><style type="text/css"><![CDATA[ svg.railroad-diagram {
  background-color: hsl(30,20%,95%);
}
svg.railroad-diagram path {
  stroke-width: 3;
  stroke: black;
  fill: none;
}
svg.railroad-diagram text {
  font: bold 14px monospace;
  text-anchor: middle;
  cursor: pointer;
}
svg.railroad-diagram text.label {
  text-anchor: start;
}
svg.railroad-diagram text.comment {
  font: italic 12px monospace;
}
svg.railroad-diagram rect {
  stroke-width: 3;
  stroke: black;
  fill: hsl(120,100%,90%);
}
 ]]></style></defs>
<g transform="translate(.5 .5)">
<path d="M 20 21 v 20 m 10 -20 v 20 m -10 -10 h 20.5"></path>
<g>
<path d="M40 31h0"></path>
<path d="M324 31h0"></path>
<path d="M40 31h20"></path>
<g>
<path d="M60 31h0"></path>
<path d="M304 31h0"></path>
<path d="M60 31h10"></path>
<g>
<path d="M70 31h0"></path>
<path d="M138 31h0"></path>
<rect x="70" y="20" width="68" height="22"></rect>
<text x="104" y="35">prefix</text>
</g>
<path d="M138 31h10"></path>
<path d="M148 31h10"></path>
<g>
<path d="M158 31h0"></path>
<path d="M186 31h0"></path>
<rect x="158" y="20" width="28" height="22"></rect>
<text x="172" y="35">&#95;</text>
</g>
<path d="M186 31h10"></path>
<path d="M196 31h10"></path>
<g>
<path d="M206 31h0"></path>
<path d="M294 31h0"></path>
<path d="M206 31h10"></path>
<g>
<path d="M216 31h0"></path>
<path d="M284 31h0"></path>
<rect x="216" y="20" width="68" height="22"></rect>
<text x="250" y="35">suffix</text>
</g>
<path d="M284 31h10"></path>
<path d="M216 31a10 10 0 0 0 -10 10v0a10 10 0 0 0 10 10"></path>
<g>
<path d="M216 51h68"></path>
</g>
<path d="M284 51a10 10 0 0 0 10 -10v0a10 10 0 0 0 -10 -10"></path>
</g>
<path d="M294 31h10"></path>
</g>
<path d="M304 31h20"></path>
<path d="M40 31a10 10 0 0 1 10 10v19a10 10 0 0 0 10 10"></path>
<g>
<path d="M60 70h96"></path>
<path d="M208 70h96"></path>
<rect x="156" y="59" width="52" height="22"></rect>
<text x="182" y="74">Name</text>
</g>
<path d="M304 70a10 10 0 0 0 10 -10v-19a10 10 0 0 1 10 -10"></path>
</g>
<path d="M 324 31 h 20 m -10 -10 v 20 m 10 -20 v 20"></path>
</g>
</svg>
