<?xml version="1.0" standalone="no"?>
<!DOCTYPE svg PUBLIC "-//W3C//DTD SVG 1.1//EN"
  "http://www.w3.org/Graphics/SVG/1.1/DTD/svg11.dtd">
<svg xmlns="http://www.w3.org/2000/svg" version="1.1" class="railroad-diagram" width="297" height="81" viewBox="0 0 297 81">
<defs><style type="text/css"><![CDATA[ svg.railroad-diagram {
  background-color: hsl(30,20%,95%);
}
svg.railroad-diagram path {
  stroke-width: 3;
  stroke: black;
  fill: none;
}
svg.railroad-diagram text {
  font: bold 14px monospace;
  text-anchor: middle;
  cursor: pointer;
}
svg.railroad-diagram text.label {
  text-anchor: start;
}
svg.railroad-diagram text.comment {
  font: italic 12px monospace;
}
svg.railroad-diagram rect {
  stroke-width: 3;
  stroke: black;
  fill: hsl(120,100%,90%);
}
 ]]></style></defs>
<g transform="translate(.5 .5)">
<path d="M 20 31 v 20 m 10 -20 v 20 m -10 -10 h 20.5"></path>
<g>
<path d="M40 41h0"></path>
<path d="M256 41h0"></path>
<path d="M40 41h10"></path>
<g>
<path d="M50 41h0"></path>
<path d="M94 41h0"></path>
<rect x="50" y="30" width="44" height="22"></rect>
<text x="72" y="45">var</text>
</g>
<path d="M94 41h10"></path>
<g>
<path d="M104 41h0"></path>
<path d="M256 41h0"></path>
<path d="M104 41a10 10 0 0 0 10 -10v0a10 10 0 0 1 10 -10"></path>
<g>
<path d="M124 21h112"></path>
</g>
<path d="M236 21a10 10 0 0 1 10 10v0a10 10 0 0 0 10 10"></path>
<path d="M104 41h20"></path>
<g>
<path d="M124 41h0"></path>
<path d="M236 41h0"></path>
<path d="M124 41h10"></path>
<g>
<path d="M134 41h0"></path>
<path d="M226 41h0"></path>
<rect x="134" y="30" width="92" height="22"></rect>
<text x="180" y="45">comma&#95;var</text>
</g>
<path d="M226 41h10"></path>
<path d="M134 41a10 10 0 0 0 -10 10v0a10 10 0 0 0 10 10"></path>
<g>
<path d="M134 61h92"></path>
</g>
<path d="M226 61a10 10 0 0 0 10 -10v0a10 10 0 0 0 -10 -10"></path>
</g>
<path d="M236 41h20"></path>
</g>
</g>
<path d="M 256 41 h 20 m -10 -10 v 20 m 10 -20 v 20"></path>
</g>
</svg>
